<?xml version="1.0" encoding="iso-8859-1"?>
<!-- Generator: Adobe Illustrator 16.0.0, SVG Export Plug-In . SVG Version: 6.00 Build 0)  -->
<!DOCTYPE svg PUBLIC "-//W3C//DTD SVG 1.1//EN" "http://www.w3.org/Graphics/SVG/1.1/DTD/svg11.dtd">
<svg version="1.1" id="Capa_1" xmlns="http://www.w3.org/2000/svg" xmlns:xlink="http://www.w3.org/1999/xlink" x="0px" y="0px"
	 width="567.603px" height="567.603px" viewBox="0 0 567.603 567.603" style="enable-background:new 0 0 567.603 567.603;"
	 xml:space="preserve">
<g>
	<g>
		<path d="M93.376,263.733c35.041,0,63.423-28.4,63.423-63.415c0-2.078-0.117-3.999-0.277-6.081c-0.13-1.24-0.273-2.758-0.672-4.402
			c-1.102-5.526-3.873-12.682-7.72-21.097c-11.706-25.512-34.073-61.359-54.753-89.065c-31.683,40.124-47.684,71.018-55.677,90.444
			c-0.152,0.273-0.152,0.551-0.295,0.824c-3.579,8.831-5.361,15.163-6.35,18.901c-0.13,0.408-0.13,0.677-0.256,0.95
			c-0.143,1.11-0.286,2.355-0.438,3.457c-0.139,2.069-0.273,3.99-0.273,6.077C30.096,235.333,58.513,263.733,93.376,263.733
			L93.376,263.733z"/>
		<path d="M553.058,238.577c-0.226-0.464-0.469-0.854-0.711-1.379c-0.104-0.204-0.2-0.364-0.295-0.56
			c-6.523-14.629-21.184-17.327-28.679-17.722c-44.639,0-162.281,0-186.067,0c-29.476,0-44.482,9.833-44.482,9.833L136.571,346.175
			c-4.129,3.114-15.154,21.733-5.487,38.987c9.637,17.254,42.744,4.138,42.744,4.138s109.671-71.057,117.938-75.871
			c8.292-4.806,20.021-4.146,28.989,8.284c10.349,20.697-15.848,35.855-15.848,35.855l-91.299,59.56
			c-17.8,11.606-33.566,13.939-41.417,14.33l-128.721,0.59C19.331,432.048,0,437.583,0,458.262c0,26.917,30.36,29.667,30.36,29.667
			h207.146c6.749-0.069,32.321-1.44,56.722-17.496l138.679-91.386c0.451-0.312,13.289-8.778,36.642-8.9
			c12.569-0.13,30.1-0.156,52.42,0.139c0,0,0.269,0.018,0.364,0.018c0.269,0,0.59,0.018,0.867,0.018
			c4.736,0.025,22.415-1.102,30.95-17.813C578.162,304.208,565.064,262.042,553.058,238.577L553.058,238.577z"/>
	</g>
</g>
<g>
</g>
<g>
</g>
<g>
</g>
<g>
</g>
<g>
</g>
<g>
</g>
<g>
</g>
<g>
</g>
<g>
</g>
<g>
</g>
<g>
</g>
<g>
</g>
<g>
</g>
<g>
</g>
<g>
</g>
</svg>
