<?xml version="1.0" encoding="iso-8859-1"?>
<!-- Generator: Adobe Illustrator 19.0.0, SVG Export Plug-In . SVG Version: 6.00 Build 0)  -->
<svg version="1.1" id="Layer_1" xmlns="http://www.w3.org/2000/svg" xmlns:xlink="http://www.w3.org/1999/xlink" x="0px" y="0px"
	 viewBox="0 0 512 512" style="enable-background:new 0 0 512 512;" xml:space="preserve">
<g>
	<g>
		<path d="M448,58.667c-33.749,0-61.483,26.261-63.829,59.413l-43.541,43.541c-34.859-4.523-74.965-6.955-116.629-6.955
			c-9.131,0-224,0.597-224,53.333c0,86.848,49.963,165.355,128,202.389v10.944c0,17.643,14.357,32,32,32h128
			c17.643,0,32-14.357,32-32v-10.944C398.037,373.355,448,294.827,448,208c0-4.416-1.6-8.555-4.48-12.437l9.045-9.045
			c33.152-2.347,59.435-30.08,59.435-63.829C512,87.381,483.285,58.667,448,58.667z M262.997,239.275
			c-0.427,0.021-0.875,0.021-1.301,0.043c-12.224,0.427-24.789,0.683-37.675,0.683C98.496,240,26.88,219.413,21.504,208.192
			C27.285,196.48,98.816,176,224,176c34.283,0,67.541,1.643,97.472,4.779L262.997,239.275z"/>
	</g>
</g>
<g>
</g>
<g>
</g>
<g>
</g>
<g>
</g>
<g>
</g>
<g>
</g>
<g>
</g>
<g>
</g>
<g>
</g>
<g>
</g>
<g>
</g>
<g>
</g>
<g>
</g>
<g>
</g>
<g>
</g>
</svg>
